<svg width="198" height="52" viewBox="0 0 198 52" fill="none" xmlns="http://www.w3.org/2000/svg">
<path fill-rule="evenodd" clip-rule="evenodd" d="M170.11 27.2469C170.33 27.3426 170.473 27.5686 170.473 27.8192V45.3423C170.473 47.1079 169.808 48.8011 168.624 50.0494C167.439 51.2979 165.833 51.9992 164.158 51.9992H164.156C162.481 51.9992 160.874 51.2979 159.69 50.0494C158.506 48.8011 157.841 47.1079 157.841 45.3423V40.3318C157.841 39.9222 157.994 39.5295 158.268 39.2394L169.469 27.3823C169.637 27.2046 169.89 27.1512 170.11 27.2469ZM123.56 27.2469C123.34 27.3426 123.197 27.5686 123.197 27.8192V45.3423C123.197 47.1079 123.862 48.8011 125.047 50.0494C126.231 51.2979 127.838 51.9992 129.513 51.9992H129.514C131.189 51.9992 132.796 51.2979 133.98 50.0494C135.165 48.8011 135.83 47.1079 135.83 45.3423V40.3318C135.83 39.9222 135.677 39.5295 135.402 39.2394C133.623 37.357 126.791 30.1247 124.2 27.3823C124.033 27.2046 123.78 27.1512 123.56 27.2469ZM124.941 16.9498C122.615 19.4003 122.615 23.3736 124.941 25.8241L142.333 44.1557C143.524 45.4108 145.139 46.116 146.823 46.116C148.507 46.116 150.123 45.4108 151.313 44.1557C156.204 39 163.968 30.8172 168.745 25.7823C171.068 23.3338 171.068 19.3641 168.745 16.9157L168.745 16.9152C166.422 14.4665 162.655 14.4665 160.331 16.9152C155.094 22.4352 146.83 31.1459 146.83 31.1459C146.83 31.1459 138.59 22.4608 133.361 16.9496C131.035 14.4989 127.265 14.4989 124.941 16.9496C124.941 16.9497 124.941 16.9497 124.941 16.9498ZM135.881 6.68045C135.881 2.99342 133.041 0 129.542 0C126.045 0 123.205 2.99342 123.205 6.68045C123.205 10.3674 126.045 13.3609 129.542 13.3609C133.041 13.3609 135.881 10.3674 135.881 6.68045ZM170.488 6.68045C170.488 2.99342 167.648 0 164.15 0C160.651 0 157.811 2.99342 157.811 6.68045C157.811 10.3674 160.651 13.3609 164.15 13.3609C167.648 13.3609 170.488 10.3674 170.488 6.68045ZM27.8173 21.5177H17.3565V51.5045H10.3201V21.5177H0V15.5105H27.8173V21.5177ZM44.3177 31.4567C43.3953 31.3249 42.5821 31.259 41.8785 31.259C39.3141 31.259 37.6332 32.1736 36.8357 34.003V51.5055H30.0573V24.7573H36.4604L36.6481 27.9463C38.0085 25.4907 39.8926 24.2629 42.3007 24.2629C43.0512 24.2629 43.7548 24.37 44.4116 24.5843L44.3177 31.4567ZM57.3096 51.999C60.265 51.999 62.5791 50.9276 64.2522 48.7852L64.4399 51.5045H70.8196V24.7563H64.0177V43.6926C63.1577 45.3736 61.5784 46.2143 59.2798 46.2143C56.8718 46.2143 55.6678 44.8216 55.6678 42.0364V24.7563H48.8894V42.2836C48.9207 45.4643 49.6517 47.8788 51.0824 49.5268C52.5132 51.1749 54.5889 51.999 57.3096 51.999ZM90.3312 44.114C90.3312 43.2404 89.9207 42.5524 89.0998 42.0497C88.2789 41.547 86.9615 41.098 85.1476 40.7024C79.112 39.3674 76.0942 36.6647 76.0942 32.5938C76.0942 30.2206 77.0284 28.2389 78.897 26.6485C80.7656 25.058 83.2087 24.2629 86.2266 24.2629C89.4477 24.2629 92.0239 25.0622 93.955 26.6609C95.8861 28.2594 96.8516 30.336 96.8516 32.8906H90.0732C90.0732 31.8688 89.7604 31.0241 89.1349 30.3567C88.5096 29.6892 87.5322 29.3555 86.2032 29.3555C85.0617 29.3555 84.1782 29.6274 83.5527 30.1713C82.9273 30.7151 82.6146 31.4072 82.6146 32.2478C82.6146 33.0389 82.9703 33.6775 83.6818 34.1637C84.3932 34.6499 85.5933 35.0702 87.2821 35.4244C88.9708 35.7788 90.3937 36.1784 91.5508 36.6235C95.1316 38.0078 96.9219 40.4058 96.9219 43.8172C96.9219 46.2564 95.929 48.23 93.9433 49.738C91.9574 51.246 89.393 52 86.2501 52C84.1235 52 82.2354 51.6004 80.5857 50.801C78.9361 50.0017 77.6421 48.9057 76.704 47.513C75.7658 46.1204 75.2967 44.6166 75.2967 43.0015H81.7233C81.7858 44.2705 82.2315 45.2429 83.0602 45.9185C83.8889 46.5943 84.9991 46.9322 86.3908 46.9322C87.6886 46.9322 88.6698 46.6726 89.3343 46.1534C89.9989 45.6343 90.3312 44.9544 90.3312 44.114ZM109.646 24.7564V18.1805H102.868V24.7564H99.1624V29.9972H102.868V44.4096C102.962 49.4692 105.386 51.9991 110.138 51.9991C111.546 51.9991 112.914 51.7847 114.243 51.3563V45.9423C113.665 46.0577 113.001 46.1154 112.25 46.1154C111.233 46.1154 110.545 45.9012 110.186 45.4727C109.826 45.0441 109.646 44.3355 109.646 43.3466V29.9972H113.986V24.7564H109.646ZM187.562 51.999C183.841 51.999 180.812 50.7959 178.474 48.3898C176.136 45.9835 174.968 42.778 174.968 38.7732V38.0811C174.968 35.3947 175.46 32.9926 176.445 30.8748C177.43 28.7571 178.826 27.1254 180.631 25.98C182.438 24.8346 184.498 24.2619 186.812 24.2619C190.283 24.2619 193.016 25.4155 195.009 27.7229C197.003 30.0302 198 33.3016 198 37.5371V40.4542H181.84C182.059 42.2011 182.719 43.6021 183.821 44.6568C184.924 45.7116 186.32 46.239 188.008 46.239C190.62 46.239 192.66 45.2419 194.13 43.2477L197.46 47.1783C196.445 48.6945 195.069 49.8771 193.332 50.7258C191.597 51.5746 189.674 51.999 187.562 51.999ZM186.788 30.0466C185.444 30.0466 184.353 30.5246 183.516 31.4805C182.68 32.4364 182.145 33.8043 181.911 35.5842H191.339V35.0156C191.308 33.4334 190.901 32.2097 190.12 31.3445C189.338 30.4793 188.228 30.0466 186.788 30.0466Z" fill="#2E9E9C"/>
</svg>
